<svg xmlns="http://www.w3.org/2000/svg"  viewBox="0 0 50 50" width="50px" height="50px"><path d="M 34.84375 7.9375 C 33.699219 7.9375 32.679688 8.429688 31.40625 9 L 31.40625 8.96875 C 29.273438 9.882813 24.6875 12 24.6875 12 L 4 12 C 1.789063 12 0 13.789063 0 16 L 0 35 C 0 37.210938 1.789063 39 4 39 L 33 39 C 34.0625 39 34.925781 38.5625 35.59375 38.0625 C 37.449219 38.738281 39.140625 39 41.3125 39 C 42.847656 39 44.519531 38.59375 46 38.15625 C 47.480469 37.71875 48.769531 37.242188 49.3125 37.0625 C 49.730469 36.925781 50.007813 36.53125 50 36.09375 L 50 21.8125 C 49.996094 21.554688 49.898438 21.308594 49.71875 21.125 C 49.71875 21.125 42.648438 13.640625 39.5 10.59375 C 37.898438 8.992188 36.699219 8.136719 35.34375 7.96875 C 35.175781 7.949219 35.007813 7.9375 34.84375 7.9375 Z M 34.5625 9.9375 C 34.75 9.910156 34.933594 9.917969 35.09375 9.9375 C 35.738281 10.019531 36.597656 10.503906 38.09375 12 C 38.09375 12.011719 38.09375 12.019531 38.09375 12.03125 C 41.058594 14.902344 47.632813 21.828125 48 22.21875 L 48 35.375 C 47.3125 35.617188 46.539063 35.925781 45.4375 36.25 C 44.042969 36.664063 42.476563 37 41.3125 37 C 38.988281 37 37.546875 36.769531 35.5625 35.9375 C 33.582031 35.109375 31.046875 33.609375 26.8125 31.21875 C 26.804688 31.214844 26.789063 31.222656 26.78125 31.21875 C 25.484375 30.472656 24.230469 29.726563 23.5625 29.03125 C 23.226563 28.679688 23.058594 28.371094 23 28.09375 C 22.941406 27.816406 22.945313 27.527344 23.1875 27.0625 C 23.597656 26.246094 24.007813 26.050781 24.96875 26 C 25.929688 25.949219 27.375 26.210938 29.15625 26.65625 C 32.488281 27.464844 37.28125 28.46875 37.28125 28.46875 C 37.644531 28.597656 38.050781 28.503906 38.324219 28.234375 C 38.59375 27.960938 38.6875 27.554688 38.558594 27.191406 C 38.429688 26.828125 38.101563 26.570313 37.71875 26.53125 C 37.71875 26.53125 37.144531 26.40625 37 26.375 L 37 16 C 37 13.789063 35.210938 12 33 12 L 29.53125 12 C 30.488281 11.570313 31.523438 11.097656 32.1875 10.8125 C 32.199219 10.8125 32.207031 10.8125 32.21875 10.8125 C 33.304688 10.328125 34.003906 10.019531 34.5625 9.9375 Z M 4 14 L 33 14 C 34.191406 14 35 14.808594 35 16 L 35 25.9375 C 33.367188 25.578125 31.347656 25.128906 29.65625 24.71875 C 29.644531 24.714844 29.636719 24.722656 29.625 24.71875 C 27.824219 24.269531 26.28125 23.925781 24.875 24 C 23.476563 24.074219 22.132813 24.769531 21.4375 26.125 C 21.429688 26.140625 21.414063 26.140625 21.40625 26.15625 C 21.007813 26.933594 20.871094 27.757813 21.03125 28.5 C 21.191406 29.253906 21.621094 29.882813 22.125 30.40625 C 23.128906 31.457031 24.515625 32.222656 25.8125 32.96875 C 29.019531 34.78125 31.273438 36.078125 33.125 37 C 33.082031 37.003906 33.042969 37 33 37 L 4 37 C 2.808594 37 2 36.191406 2 35 L 2 16 C 2 14.808594 2.808594 14 4 14 Z M 12.5 17 C 11.378906 17 10.269531 17.390625 9.4375 18.1875 C 8.605469 18.984375 8.09375 20.171875 8.09375 21.59375 C 8.09375 23.246094 8.800781 24.828125 9.875 25.96875 C 9.976563 26.21875 9.917969 26.253906 9.875 26.34375 C 9.855469 26.386719 9.84375 26.433594 9.8125 26.46875 C 9.78125 26.503906 9.769531 26.511719 9.6875 26.59375 C 8.8125 26.957031 7.953125 27.363281 7.3125 27.9375 C 6.570313 28.605469 6 29.464844 6 30.5 L 6 31 C 6 31.671875 6.304688 32.3125 6.75 32.75 C 7.195313 33.1875 7.71875 33.46875 8.3125 33.65625 C 9.503906 34.027344 10.957031 34.09375 12.5 34.09375 C 14.042969 34.09375 15.496094 34.027344 16.6875 33.65625 C 17.28125 33.46875 17.804688 33.1875 18.25 32.75 C 18.695313 32.3125 19 31.671875 19 31 L 19 30.5 C 19 29.464844 18.414063 28.605469 17.65625 27.9375 C 16.96875 27.332031 16.070313 26.871094 15.09375 26.5 C 15.070313 26.4375 15.046875 26.269531 15.125 26 C 16.074219 24.863281 16.90625 23.324219 16.90625 21.59375 C 16.90625 18.828125 14.78125 17 12.5 17 Z M 12.5 19 C 13.820313 19 14.90625 19.757813 14.90625 21.59375 C 14.90625 22.738281 14.234375 24.089844 13.46875 24.9375 C 13.375 25.027344 13.300781 25.132813 13.25 25.25 C 12.976563 26.003906 13.019531 26.714844 13.21875 27.21875 C 13.316406 27.472656 13.449219 27.679688 13.59375 27.84375 C 13.664063 27.925781 13.742188 27.988281 13.84375 28.0625 C 13.898438 28.101563 14.09375 28.140625 14.1875 28.1875 L 14.15625 28.25 C 15.0625 28.566406 15.851563 29.003906 16.34375 29.4375 C 16.835938 29.871094 17 30.234375 17 30.5 L 17 31 C 17 31.179688 16.992188 31.226563 16.875 31.34375 C 16.757813 31.460938 16.46875 31.59375 16.0625 31.71875 C 15.253906 31.972656 13.957031 32.09375 12.5 32.09375 C 11.042969 32.09375 9.746094 31.972656 8.9375 31.71875 C 8.53125 31.59375 8.242188 31.460938 8.125 31.34375 C 8.007813 31.226563 8 31.179688 8 31 L 8 30.5 C 8 30.234375 8.171875 29.839844 8.65625 29.40625 C 9.140625 28.972656 9.894531 28.566406 10.75 28.25 C 10.882813 28.191406 11 28.105469 11.09375 28 C 11.058594 28.035156 11.195313 27.917969 11.3125 27.78125 C 11.429688 27.644531 11.570313 27.460938 11.6875 27.21875 C 11.917969 26.734375 12.019531 25.96875 11.71875 25.21875 C 11.664063 25.078125 11.578125 24.949219 11.46875 24.84375 C 10.734375 24.183594 10.09375 22.78125 10.09375 21.59375 C 10.09375 20.617188 10.394531 20.027344 10.8125 19.625 C 11.230469 19.222656 11.820313 19 12.5 19 Z"/></svg>